<svg width="49" height="40" viewBox="0 0 49 40" fill="none" xmlns="http://www.w3.org/2000/svg">
<path d="M48.6665 9.20988C48.4499 13.6898 45.1394 19.8244 38.7366 27.6102C32.1167 35.7434 26.5158 39.8095 21.934 39.8095C19.0969 39.8095 16.694 37.3336 14.7327 32.3801C13.422 27.8395 12.1127 23.2993 10.8024 18.7587C9.34515 13.8079 7.78267 11.3293 6.1121 11.3293C5.7479 11.3293 4.47319 12.0537 2.29088 13.4969L0 10.7073C2.40287 8.71149 4.77361 6.7161 7.10587 4.71796C10.3107 2.10016 12.7165 0.723511 14.3198 0.58433C18.1094 0.240282 20.4417 2.68858 21.3171 7.92969C22.2632 13.5842 22.9176 17.1014 23.2857 18.478C24.3778 23.1693 25.5795 25.512 26.8927 25.512C27.9118 25.512 29.4426 23.9906 31.4837 20.9479C33.5228 17.9043 34.615 15.5888 34.7625 13.9981C35.0527 11.3715 33.9601 10.0551 31.4837 10.0551C30.318 10.0551 29.1164 10.3086 27.8801 10.8098C30.2728 3.40102 34.8448 -0.197013 41.5933 0.00831334C46.5962 0.147035 48.9548 3.21407 48.6665 9.20988Z" fill="white"/>
</svg>
